<?xml version="1.0" standalone="no"?>
<!DOCTYPE svg PUBLIC "-//W3C//DTD SVG 20010904//EN"
 "http://www.w3.org/TR/2001/REC-SVG-20010904/DTD/svg10.dtd">
<svg version="1.0" xmlns="http://www.w3.org/2000/svg"
 width="172.000000pt" height="172.000000pt" viewBox="0 0 172.000000 172.000000"
 preserveAspectRatio="xMidYMid meet">
<metadata>
Created by potrace 1.11, written by Peter Selinger 2001-2013
</metadata>
<g transform="translate(0.000000,172.000000) scale(0.100000,-0.100000)"
fill="#000000" stroke="none">
<path d="M1076 1608 c-37 -34 -39 -85 -4 -117 l21 -21 -28 -52 c-15 -29 -31
-56 -34 -60 -3 -3 -44 -8 -91 -11 -103 -5 -119 -9 -189 -44 -65 -33 -141 -107
-179 -174 -15 -27 -31 -48 -37 -46 -5 2 -88 26 -183 52 -169 48 -172 49 -172
76 0 76 -106 114 -156 56 -74 -86 44 -206 128 -130 15 13 35 10 201 -37 l184
-52 -9 -41 c-5 -23 -10 -103 -10 -177 -1 -138 14 -224 48 -275 13 -20 11 -24
-51 -69 -53 -39 -68 -45 -84 -37 -28 16 -80 2 -98 -26 -49 -74 30 -164 108
-123 27 15 47 60 39 90 -5 22 1 30 54 68 l60 42 26 -32 c72 -94 229 -225 308
-257 29 -12 35 -11 92 24 72 44 140 96 198 154 l44 43 102 -103 c100 -102 101
-105 101 -151 0 -37 5 -51 24 -67 60 -52 153 2 136 79 -11 49 -62 77 -110 60
-16 -6 -39 12 -127 99 l-106 107 30 50 c63 100 73 143 73 319 0 88 -3 174 -7
190 l-7 30 95 28 c78 23 98 26 117 16 64 -35 127 0 127 70 0 31 -6 44 -26 60
-63 49 -147 -2 -135 -81 0 -4 -16 -12 -37 -17 -20 -6 -59 -17 -87 -26 -27 -8
-53 -15 -57 -15 -3 0 -20 24 -37 53 -44 77 -106 133 -192 176 l-76 37 35 61
c20 34 38 62 41 61 36 -3 71 35 71 79 0 71 -81 108 -134 61z m-37 -585 c64
-20 132 -79 161 -137 19 -41 20 -47 6 -79 -21 -51 -83 -115 -135 -139 -93 -44
-228 -24 -301 44 -71 65 -90 119 -61 174 38 72 82 111 153 135 66 23 112 24
177 2z"/>
</g>
</svg>
