<?xml version="1.0" standalone="no"?>
<!DOCTYPE svg PUBLIC "-//W3C//DTD SVG 20010904//EN"
 "http://www.w3.org/TR/2001/REC-SVG-20010904/DTD/svg10.dtd">
<svg version="1.0" xmlns="http://www.w3.org/2000/svg"
 width="528.000000pt" height="528.000000pt" viewBox="0 0 528.000000 528.000000"
 preserveAspectRatio="xMidYMid meet">
<metadata>
Created by potrace 1.11, written by Peter Selinger 2001-2013
</metadata>
<g transform="translate(0.000000,528.000000) scale(0.100000,-0.100000)"
fill="#000000" stroke="none">
<path d="M4101 5260 c-143 -38 -260 -116 -361 -240 -148 -182 -182 -469 -80
-687 101 -217 282 -350 528 -389 20 -3 38 -7 39 -8 1 -1 4 -44 7 -96 3 -52 8
-140 11 -195 4 -55 8 -125 10 -155 3 -30 7 -98 10 -150 3 -52 7 -131 10 -175
3 -44 7 -116 10 -160 5 -81 12 -196 20 -315 3 -36 7 -110 10 -165 3 -55 7
-129 10 -165 15 -211 19 -311 13 -314 -61 -32 -87 -43 -90 -37 -3 7 -181 145
-567 439 -110 84 -203 157 -206 163 -4 5 -8 40 -9 77 -4 86 -11 114 -47 188
-126 261 -484 318 -690 111 -192 -193 -162 -510 63 -665 26 -18 52 -32 58 -32
7 0 9 -34 5 -112 -3 -62 -7 -165 -10 -228 -2 -63 -7 -176 -10 -250 -12 -251
-13 -285 -21 -460 -4 -96 -8 -195 -9 -220 -2 -25 -3 -72 -4 -105 l-1 -60 -47
-19 -46 -19 -46 50 c-25 27 -98 107 -161 178 -63 71 -140 157 -170 190 -30 33
-86 95 -124 138 -38 43 -78 88 -90 100 -26 29 -151 168 -174 195 -9 10 -51 57
-93 103 -239 264 -279 310 -279 320 0 6 8 23 19 37 28 41 62 120 82 192 14 49
17 94 15 185 -5 193 -58 316 -197 456 -62 63 -93 85 -170 122 -110 53 -168 68
-275 71 -298 9 -549 -162 -657 -448 -29 -75 -31 -90 -31 -216 -1 -121 2 -143
27 -216 34 -103 92 -193 173 -271 73 -70 124 -103 222 -143 168 -68 354 -61
530 18 34 15 34 15 70 -25 38 -42 154 -171 232 -258 25 -27 47 -52 50 -55 3
-3 35 -39 70 -80 36 -41 70 -79 76 -85 11 -10 147 -161 270 -301 34 -38 74
-82 89 -99 15 -16 44 -48 64 -70 20 -22 77 -85 126 -140 49 -55 103 -115 121
-134 31 -34 31 -34 17 -80 -16 -52 -20 -147 -10 -206 20 -107 108 -230 207
-287 136 -79 318 -76 451 8 93 58 177 179 194 281 31 184 -51 367 -204 455
l-40 23 4 105 c3 58 7 150 9 205 6 110 17 364 21 465 5 136 18 426 20 450 1
14 3 66 4 117 l1 92 56 25 c30 14 68 35 85 47 l30 21 122 -93 c67 -52 203
-156 302 -232 99 -76 190 -146 203 -155 13 -9 32 -24 42 -32 10 -8 34 -27 54
-42 30 -24 34 -31 27 -55 -12 -45 -13 -144 -1 -197 35 -157 166 -293 315 -326
56 -13 143 -15 195 -6 58 11 156 62 204 106 222 204 172 569 -96 706 -35 18
-48 30 -49 47 0 12 -2 33 -4 47 -1 14 -6 84 -9 155 -4 72 -9 148 -11 170 -2
22 -6 90 -10 150 -3 61 -8 139 -10 175 -5 72 -12 177 -20 320 -3 52 -8 124
-10 160 -2 36 -6 115 -10 175 -3 61 -8 130 -10 155 -3 25 -7 97 -10 160 -3 63
-8 145 -11 181 l-5 66 31 13 c50 21 141 84 190 131 266 260 267 696 1 956 -67
67 -167 128 -257 159 -107 37 -273 42 -383 14z"/>
</g>
</svg>
